<?xml version="1.0" encoding="UTF-8" standalone="no"?>
<!-- Created with Inkscape (http://www.inkscape.org/) -->

<svg
   width="10000"
   height="7000"
   viewBox="0 0 10000 7000.0001"
   version="1.1"
   id="svg62"
   xml:space="preserve"
   inkscape:version="1.2.2 (732a01da63, 2022-12-09)"
   sodipodi:docname="LevelCollision.svg"
   xmlns:inkscape="http://www.inkscape.org/namespaces/inkscape"
   xmlns:sodipodi="http://sodipodi.sourceforge.net/DTD/sodipodi-0.dtd"
   xmlns:xlink="http://www.w3.org/1999/xlink"
   xmlns="http://www.w3.org/2000/svg"
   xmlns:svg="http://www.w3.org/2000/svg"><sodipodi:namedview
     id="namedview64"
     pagecolor="#505050"
     bordercolor="#ffffff"
     borderopacity="1"
     inkscape:showpageshadow="0"
     inkscape:pageopacity="0"
     inkscape:pagecheckerboard="1"
     inkscape:deskcolor="#505050"
     inkscape:document-units="px"
     showgrid="false"
     inkscape:zoom="0.08"
     inkscape:cx="3731.25"
     inkscape:cy="4062.5"
     inkscape:window-width="2560"
     inkscape:window-height="1494"
     inkscape:window-x="2869"
     inkscape:window-y="-11"
     inkscape:window-maximized="1"
     inkscape:current-layer="layer1"
     showguides="true" /><defs
     id="defs2996" /><g
     inkscape:label="Layer 1"
     inkscape:groupmode="layer"
     id="layer1"><image
       width="10000"
       height="7000"
       preserveAspectRatio="none"
       xlink:href="colision%20level.png"
       id="use363"
       x="0"
       y="0" /><path
       style="fill:#000000;stroke-width:0.999999"
       d="m 2103,1131 v -95.0003 h -2103 v -1035.9997 h 10000 v 561.99997 h -2315 v -75.99987 h -3758 v 644.9999 z"
       id="path379" /><path
       style="fill:#000000;stroke-width:0.999999"
       d="m 7515,3432 v -392 h -1713 v -961 h -1213 v -365.9999 h 623 v -111.0002 h 600 v 45.9999 h 4188 v 1784.0002 z"
       id="path377" /><path
       style="fill:#000000;stroke-width:0.999999"
       d="m 2688.25,4056.6415 -3.25,0.5811 -0.023,-0.8613 -0.023,-0.8613 -458.8412,-2740.9502 0.1916,-0.189 0.1916,-0.189 280.9282,-37.0794 0.2517,0.2532 0.2518,0.2532 458.9502,2741.8535 -0.1909,0.1883 -0.1909,0.1882 -275,36.2326 z"
       id="path375" /><path
       style="fill:#000000;stroke-width:0.999999"
       d="m 7474,4469 v -78 h -316 v -29 h -1537 v 46 h -2539 v -530 h 2506 v -384 h 1640 v 285 h 256 v 248 h 311 v 442 z"
       id="path373" /><path
       style="fill:#000000;stroke-width:0.999999"
       d="m 0,7000 v -2269 h 6032 v 83 h 320 v -83 h 1334 v 328 h 2314 v 1941 z"
       id="path369" /></g></svg>
